<?xml version="1.0" ?><!-- Uploaded to: SVG Repo, www.svgrepo.com, Generator: SVG Repo Mixer Tools -->
<svg fill="#000000" width="800px" height="800px" viewBox="0 0 32 32" data-name="Layer 2" id="Layer_2" xmlns="http://www.w3.org/2000/svg"><title/><path d="M24,10.1a1.14,1.14,0,0,0-.91-.85,1.43,1.43,0,0,0-.43-.1L20.75,9.1h0a14.27,14.27,0,0,0,0-2.17A1.26,1.26,0,0,0,20,5.66l-.19-.07h0a1.52,1.52,0,0,0-.32-.06l-.24,0-6.62-.15a1.26,1.26,0,0,0-1.25,1.25c0,.81.05,1.63.07,2.44l-2.74.08a1.2,1.2,0,0,0-1.17,1,1.2,1.2,0,0,0-.17.64q0,4.53,0,9.06c0,1.32-.39,3.27,1,4.1a5,5,0,0,0,2.63.48,1.18,1.18,0,0,1,0,.47,1.26,1.26,0,0,0,1.25,1.25,1.28,1.28,0,0,0,1.25-1.25,3.2,3.2,0,0,0,0-.62l.53,0,4.56,0V25A1.25,1.25,0,0,0,21,25v-.71h1.91a1.19,1.19,0,0,0,.77-.26,1.1,1.1,0,0,0,.56-1c-.06-2.44-.11-4.87-.15-7.31C24,13.86,24.49,11.86,24,10.1ZM13.88,7.92l4.39.1c0,.34,0,.69,0,1-1.45,0-2.89,0-4.34,0Zm-3.33,13.8c-1.32-.31-1,.18-.76-1.33a19.09,19.09,0,0,0,0-2.83c0-2,0-3.95,0-5.93q6-.2,11.92,0c.16,1.59-.18,3.59-.16,5,0,1.71.06,3.42.1,5.14l-5,0C14.83,21.74,12.38,22.15,10.55,21.72Z"/><path d="M11.73,14.25a33.47,33.47,0,0,1-.12,4c-.14,1.6,2.36,1.59,2.5,0a33.47,33.47,0,0,0,.12-4C14.18,12.64,11.68,12.64,11.73,14.25Z"/><path d="M17,14l.37,4.31c.13,1.59,2.64,1.61,2.5,0L19.47,14C19.34,12.45,16.84,12.43,17,14Z"/></svg>